<?xml version="1.0" standalone="no"?>
<!DOCTYPE svg PUBLIC "-//W3C//DTD SVG 20010904//EN"
 "http://www.w3.org/TR/2001/REC-SVG-20010904/DTD/svg10.dtd">
<svg version="1.0" xmlns="http://www.w3.org/2000/svg"
 width="1024.000000pt" height="1024.000000pt" viewBox="0 0 1024.000000 1024.000000"
 preserveAspectRatio="xMidYMid meet">

<g transform="translate(0.000000,1024.000000) scale(0.100000,-0.100000)"
fill="#000000" stroke="none">
<path d="M2840 5298 l0 -2963 655 0 655 0 0 992 0 991 743 5 c408 3 760 8 782
11 22 3 81 11 130 17 109 13 381 78 502 120 259 91 572 298 736 487 322 372
477 813 477 1354 0 217 -14 336 -60 517 -36 145 -72 237 -151 391 -150 296
-321 484 -619 681 -253 168 -560 277 -936 331 -146 21 -177 22 -1531 25
l-1383 4 0 -2963z m2683 1834 c197 -41 323 -96 451 -196 155 -121 215 -228
251 -451 38 -234 -2 -488 -108 -677 -96 -171 -270 -297 -502 -363 -175 -49
-227 -53 -867 -54 l-598 -1 0 885 0 886 633 -3 c610 -4 636 -5 740 -26z"/>
</g>
</svg>
